<?xml version="1.0" standalone="no"?>
<!DOCTYPE svg PUBLIC "-//W3C//DTD SVG 20010904//EN"
 "http://www.w3.org/TR/2001/REC-SVG-20010904/DTD/svg10.dtd">
<svg version="1.0" xmlns="http://www.w3.org/2000/svg"
 width="300.000000pt" height="300.000000pt" viewBox="0 0 300.000000 300.000000"
 preserveAspectRatio="xMidYMid meet">

<g transform="translate(0.000000,300.000000) scale(0.100000,-0.100000)"
fill="#000000" stroke="none">
<path d="M1365 2944 c-365 -53 -603 -155 -840 -362 -243 -211 -406 -491 -476
-822 -19 -86 -23 -137 -23 -280 0 -143 4 -194 23 -280 70 -329 230 -606 470
-817 376 -329 876 -448 1358 -323 496 128 896 515 1042 1007 203 686 -124
1418 -774 1733 -114 55 -261 103 -385 126 -83 15 -336 27 -395 18z m286 -34
c451 -46 841 -287 1091 -676 83 -129 165 -342 195 -507 23 -126 23 -379 -1
-507 -91 -499 -454 -930 -929 -1100 -472 -170 -990 -91 -1387 211 -279 212
-465 510 -541 869 -32 151 -32 401 0 550 67 313 199 551 424 767 309 295 721
436 1148 393z"/>
<path d="M1340 2859 c-293 -33 -589 -172 -804 -379 -519 -498 -581 -1281 -146
-1850 390 -510 1085 -689 1678 -431 400 173 697 524 801 946 182 740 -273
1490 -1019 1680 -165 41 -339 53 -510 34z m-260 -1229 l0 -830 665 0 665 0 0
-135 0 -135 -800 0 -800 0 0 965 0 965 135 0 135 0 0 -830z m785 425 c251 -53
442 -270 462 -525 27 -354 -273 -654 -627 -627 -144 11 -283 79 -382 186 -214
233 -207 583 17 806 143 144 334 201 530 160z"/>
<path d="M860 1605 l0 -805 85 0 85 0 0 805 0 805 -85 0 -85 0 0 -805z"/>
<path d="M860 670 l0 -80 85 0 85 0 0 80 0 80 -85 0 -85 0 0 -80z"/>
<path d="M1080 665 l0 -85 640 0 640 0 0 85 0 85 -640 0 -640 0 0 -85z"/>
<path d="M1626 1964 c-178 -43 -328 -195 -371 -375 -80 -343 217 -666 565
-612 271 42 462 298 423 568 -42 292 -331 488 -617 419z"/>
</g>
</svg>
